<?xml version="1.0" encoding="utf-8"?>
<!-- Generator: Adobe Illustrator 17.0.0, SVG Export Plug-In . SVG Version: 6.00 Build 0)  -->
<!DOCTYPE svg PUBLIC "-//W3C//DTD SVG 1.1//EN" "http://www.w3.org/Graphics/SVG/1.1/DTD/svg11.dtd">
<svg version="1.1" id="Capa_1" xmlns="http://www.w3.org/2000/svg" xmlns:xlink="http://www.w3.org/1999/xlink" x="0px" y="0px"
	 width="52px" height="52px" viewBox="0 0 52 52" enable-background="new 0 0 52 52" xml:space="preserve">
<path d="M26.001,1.006c-13.679,0-24.768,11.089-24.768,24.768s11.089,24.768,24.768,24.768s24.768-11.089,24.768-24.768
	S39.68,1.006,26.001,1.006z M26,44.736c-1.97,0-8.927-13.442-8.927-14.861c0-1.087,6.159,0.603,5.264-1.516
	C21.571,26.549,18.68,8.687,26,8.687c8.247,0,5.192,17.956,4.373,19.724c-0.917,1.979,5.787,0.521,5.785,1.459
	C36.156,31.113,28.453,44.736,26,44.736z"/>
</svg>
